<svg xmlns="http://www.w3.org/2000/svg" viewBox="0 0 493.88 216.50667" height="216.507" width="493.88" id="svg2"><defs id="defs6"><clipPath id="clipPath20"><path id="path18" d="M0 0h3704v1623.82H0z"/></clipPath></defs><g id="g10"><g id="g12"><g id="g14"><g clip-path="url(#clipPath20)" id="g16" transform="matrix(.13333 0 0 -.13333 0 216.507)"><path id="path22" d="M625.195 4.879c-129.57 0-218.984 90.18-218.984 219.672 0 125.781 78.789 220.898 208.906 220.898 40 0 86.934-12.558 123.321-28.89l-25.684-63.75c-31.309 13.793-64.434 24.441-98.965 24.382C531.309 377.25 490 307.738 490 232.031c0-91.332 48.789-158.86 145.195-158.86 29.375 0 58.203 7.528 84.493 20.028l19.96-60.11C704.102 15.59 664.57 4.88 625.195 4.88" fill="#1d50a0"/><path id="path24" d="M907.793 265.941c-55.723 0-73.887-51.472-73.887-98.953 0-47.547 18.164-98.277 73.887-98.277s73.906 50.73 73.906 98.277c0 47-18.183 98.953-73.906 98.953zm0-261.66c-95.723 0-157.012 70.207-157.012 163.34 0 93.238 61.289 163.359 157.012 163.359 95.917 0 157.067-69.492 157.067-163.359 0-93.832-61.15-163.34-157.067-163.34" fill="#1d50a0"/><path id="path26" d="M1309.77 11.21v196.411c0 38.219-25.12 57.5-62.04 57.5-21.21 0-43.08-6.109-63.2-13.652 0 0 1.37-8.66 1.29-13.188l.08-227.07h-75.08V255.84c0 14.98-4.45 43.851-4.45 43.851 43.71 15.59 95.72 31.289 142.05 31.289 76.37 0 136.29-25.039 136.42-111.429V11.211h-75.07" fill="#1d50a0"/><path id="path28" d="M1558.11 0c-56.96 0-96.35 26.23-96.35 86.922v172.687l-35.63 1.879v59.41l35.63 1.911v86.839h75.08v-85.589h87.61v-65.188h-87.61V92.539c0-19.367 9.96-26.91 28.75-26.91 19.49 0 37.67 6.25 55.72 12.562l20.66-60.73C1614.45 8.05 1587.54 0 1558.11 0" fill="#1d50a0"/><path id="path30" d="M1848.42 259.57c-10.08 3.149-27.52 6.371-41.31 6.371-18.67 0-38.16-2.621-56.35-8.16 0 0 .65-4.422.65-6.312V11.211h-75v238.398c0 15.512-5.75 46.879-5.75 46.879 45.14 18.793 93.4 34.492 142.76 34.492 19.41 0 40.62-2.582 57.45-6.921l-22.45-64.489" fill="#1d50a0"/><path id="path32" d="M2024.46 265.941c-55.66 0-73.83-51.41-73.83-98.953 0-47.547 18.17-98.277 73.83-98.277 55.75 0 73.91 50.73 73.91 98.211 0 47.066-18.16 99.019-73.91 99.019zm0-261.66c-95.7 0-156.75 70.207-156.75 163.34 0 93.238 61.05 163.359 156.75 163.359 95.86 0 157.15-69.492 157.03-163.359 0-93.832-61.17-163.34-157.03-163.34" fill="#1d50a0"/><path id="path34" d="M2302.2 470.512h-74.92V11.211h74.92v459.301" fill="#1d50a0"/><path id="path36" d="M2448.06 4.281c-35.59 0-72.03 8.77-103.17 20.64l21.76 58.888c21.95-9.47 51.45-18.727 75.2-18.727 23.04 0 47.5 6.797 47.5 34.367 0 55.672-136.49 38.789-136.49 141.371 0 64.461 66.49 90.16 115.82 90.16 33.2 0 66.29-7.601 90.16-18.789l-21.21-58.242c-20.2 7.539-47.62 14.25-68.95 14.449-18.75 0-38.71-5.679-38.71-28.199 0-52.617 142.62-28.789 142.62-141.918 0-69.57-67.54-94-124.53-94" fill="#1d50a0"/><path id="path38" d="M82.031 535.18c-17.851-6.192-44.687-13.539-68.32-19.551L0 583.238c15.313 2.582 33.75 6.614 46.68 11.141 43.203 15.191 46.992 46.441 46.992 96.695v319.036h77.734V703.129c0-84.277-12.246-140.348-89.375-167.949" fill="#1d50a0"/><path id="path40" d="M375.156 840.363c-55.508 0-73.769-51.261-73.769-98.957 0-47.48 18.261-98.125 73.769-98.125 55.86 0 73.965 50.645 73.965 98.125 0 46.992-18.105 98.957-73.965 98.957zm0-261.453c-95.644 0-156.953 69.996-156.953 163.199 0 93.313 61.309 163.371 156.953 163.371 95.86 0 157.207-69.441 157.207-163.371 0-93.828-61.347-163.199-157.207-163.199" fill="#1d50a0"/><path id="path42" d="M780.703 585.82v197.657c0 34.375-21.25 56.886-52.422 56.886-24.57 0-51.406-10.508-72.187-23.066V585.82h-74.942l-.058 459.17h75V884.824c28.906 12.434 60.742 20.656 92.773 20.656 70.059 0 106.797-41.3 106.797-110.808V585.82h-74.961" fill="#1d50a0"/><path id="path44" d="M1118.48 585.82v196.352c0 38.219-24.96 57.633-61.84 57.633-21.41 0-43.16-6.367-63.261-13.856 0 0 1.367-8.652 1.367-13.176V585.82h-75.137v244.582c0 15.039-4.453 43.848-4.453 43.848 43.946 15.527 95.724 31.23 142.114 31.102 76.3.128 136.36-24.864 136.36-111.25V585.82h-75.15" fill="#1d50a0"/><path id="path46" d="M1340.2 578.91c-35.71 0-71.94 8.711-103.29 20.66l21.96 58.75c21.87-9.414 51.36-18.828 75.06-18.828 23.2 0 47.69 6.953 47.69 34.395 0 55.801-136.48 38.91-136.48 141.554 0 64.317 66.29 89.911 115.82 90.039 33.08 0 66.34-7.539 89.98-18.789l-21.21-58.269c-19.96 7.617-47.68 14.539-68.77 14.539-18.93 0-38.77-5.625-38.77-28.195 0-52.578 142.61-28.828 142.61-142.051-.07-69.395-67.61-93.883-124.6-93.805" fill="#1d50a0"/><path id="path48" d="M1655.14 840.363c-55.73 0-73.77-51.34-73.77-98.957-.14-47.48 18.04-98.125 73.77-98.125 55.66 0 73.77 50.645 73.77 98.125 0 46.992-18.11 99.016-73.77 98.957zm0-261.531c-95.84.078-157.21 70.074-157.21 163.277 0 93.313 61.37 163.243 157.21 163.371 95.62 0 157.11-69.441 157.11-163.371 0-93.828-61.49-163.199-157.11-163.277" fill="#1d50a0"/><path id="path50" d="M2060.09 585.82v196.352c0 38.219-24.92 57.633-61.92 57.633-21.17 0-43.08-6.367-63.16-13.856 0 0 1.33-8.652 1.33-13.176V585.82h-74.89v244.582c0 15.039-4.42 43.848-4.42 43.848 43.57 15.527 95.48 31.23 141.81 31.23 76.29-.128 136.37-24.992 136.37-111.378V585.82h-75.12" fill="#1d50a0"/><path id="path52" d="M3538.45 1448.88c-8.13 8.34-16.53 16.56-25.2 24.47-91.76-43.34-167.58-97.38-225.31-161.39 7.46-49.98 12.73-101.05 15.04-153.43 7.89-181.682-18.71-333.753-71.33-457.007 38.79-66.406 93.09-125.894 163.13-175.312 19.92 10.648 39.1 22.461 57.5 35.258-106.33 123.98-158.52 277.097-149.3 441.241 9.8 176.72 97.69 332.74 235.47 446.17" fill="#4dc196"/><path id="path54" d="M3402.94 1552.45a537.005 537.005 0 0 1-31.72 16.45c-44.3-20.23-85.86-43.84-124.37-70.43 7.81-26.48 14.84-53.54 21.17-81.13 42.61 48.29 88.75 93.43 134.92 135.11" fill="#33bbc6"/><path id="path56" d="M3233.56 468.75c24.61 4.852 48.64 11.332 72 19.121-38.64 42.68-76.33 90.301-109.65 141.231-16.76-29.493-35-57.18-54.96-82.653 28.12-27.66 59.1-53.558 92.61-77.699" fill="#33bbc6"/><path id="path58" d="M3688.53 1175.23c-59.61-51.21-100.59-116.94-114.26-192.687-14.73-81.145 5.31-162.152 50.78-234.262 50.19 86.211 79.06 186.328 79.06 293.309 0 46.02-5.47 90.66-15.58 133.64" fill="#80cc28"/><path id="path60" d="M3509.15 993.117c11.84 111.683 53.63 228.613 129.06 317.853-5.86 11.13-11.83 22.13-18.32 32.83-144.33-78.85-237.65-203.57-251.29-356.691-12.07-135.242 50.98-270.976 155.08-367.379 16.02 15.313 31.29 31.524 45.51 48.59-50.31 96.035-72.73 205.512-60.04 324.797" fill="#66c761"/><path id="path62" d="M2714.85 1461.87c-100.97-97.41-166.83-230.85-177.11-379.65 97.23 93.16 158.05 242.48 177.11 379.65" fill="#40c1e6"/><path id="path64" d="M2829.93 1548.25c-9.02-5.2-17.93-10.64-26.64-16.27-55.74-262.71-147.73-436.98-261.52-570.472 4.1-29.504 10.23-58.313 18.63-86.262 238.59 146.744 288.95 473.984 269.53 673.004" fill="#35a0d2"/><path id="path66" d="M3304.81 1158.53c-7.22 167.22-42.3 323.55-97.93 460.58-11.13 1.6-22.46 2.91-33.86 3.9 52.22-442.53 1.4-869.397-257.5-1128.44 46.44-17.422 95.7-29.101 146.91-34.16 159.26 139.942 256.56 372.16 242.38 698.12" fill="#1d50a0"/><path id="path68" d="M3077.35 1623.82c-11.09-.81-22.18-1.91-33.12-3.34 10.43-288.22-38.13-766.289-322.77-1005.441a585.063 585.063 0 0 1 85.74-66.41c368.79 250.711 366.99 741.051 270.15 1075.191" fill="#2366ab"/><path id="path70" d="M2948.29 1599.76c-9.8-2.97-19.45-6.19-28.98-9.65-16.8-296.61-96.45-612.266-319.1-814.29a584.266 584.266 0 0 1 50.27-81.054c301.99 182.324 363.75 614.404 297.81 904.994" fill="#2d80bd"/></g></g></g></g></svg>