<?xml version="1.0" encoding="utf-8"?>
<!-- Generator: Adobe Illustrator 16.0.0, SVG Export Plug-In . SVG Version: 6.00 Build 0)  -->
<!DOCTYPE svg PUBLIC "-//W3C//DTD SVG 1.1//EN" "http://www.w3.org/Graphics/SVG/1.1/DTD/svg11.dtd">
<svg version="1.1" id="Layer_1" xmlns="http://www.w3.org/2000/svg" xmlns:xlink="http://www.w3.org/1999/xlink" x="0px" y="0px"
	 width="129.6px" height="67.625px" viewBox="0 0 129.6 67.625" enable-background="new 0 0 129.6 67.625" xml:space="preserve">
<path fill="#568090" d="M94.325,15.518h-0.836v-3.964h-0.477v-0.698l-1.759-1.591l-1.787,1.619h-1.032v0.559h-0.195v5.919h-1.174
	v-4.048h-1.812v-0.615h-2.85v0.559h-1.927v0.475h-1.229V13.23h-1.786v0.39h-1.535c0,0,0.222-0.362-0.586-0.362
	c-0.809,0-0.643,0.807-0.643,0.807h-0.753v1.539l-1.286,0.472v0.476H71.21l-0.225-1.535H70.65V13.62h-0.393v-0.81h-1.311V1.448
	h-1.311V0.608h-3.24v0.81h-1.452v12.116h-0.803c0,0-0.165-2.511-0.306-2.511c-0.139,0-0.309,2.541-0.309,2.541l-0.64,0.112v2.29
	h-1.657v-2.402h-0.504v-2.485L58.28,11.47l-0.614-1.844h-0.392L56.8,11.414l-0.362-0.361v2.511h-1.675V12.81l-0.56-0.502h-0.78
	V9.626h-0.557l-0.728-0.752h-2.82v5.138h-1.312v0.725h-1.424v-4.523l-0.196-0.418H45.94l-0.391-1.424h-0.812l-0.36-0.615
	c0,0,0.055-1.117-0.335-1.117c-0.391,0-0.225,1.117-0.225,1.117l-0.333,0.645h-0.812l-0.474,1.45h-0.391l-0.056,0.474v7.29H40.44
	v-0.532h-0.755v0.671h-0.753v-4.637h-2.179l-0.445-0.642h-2.067l-0.392,0.642h-1.34v4.105l-0.015,3.012h61.905L94.325,15.518z"/>
<g>
	<path fill="#F05C22" d="M5.636,26.318l2.089,5.223l2.089-5.223v-2.498h4.723v3.406h-1.317v19.665h1.317v3.406H9.815V35.493
		l-2.089,5.132l-2.089-5.132v14.805H0.913v-3.406H2.23V27.227H0.913v-3.406h4.723V26.318z"/>
	<path fill="#F05C22" d="M21.169,39.398v10.899h-4.724v-3.406h1.317V27.227h-1.317v-3.406h4.724v8.992l2.271-3.77v-5.222h4.724
		v3.406h-1.318v2.679l-3.724,6.177l3.724,6.223v4.586h1.5v3.406h-4.905v-7.13L21.169,39.398z"/>
	<path fill="#F05C22" d="M31.206,27.227h-1.317v-3.406h9.856v5.677h-3.407v-2.271h-1.725v7.176h3.406v3.406h-3.406v9.083h1.725
		v-2.271h3.407v5.677h-9.856v-3.406h1.317V27.227z"/>
	<path fill="#F05C22" d="M46.002,36.491c0,1.415-1.204,2.618-2.618,2.618c-1.413,0-2.618-1.203-2.618-2.618
		c0-1.438,1.205-2.617,2.618-2.617C44.798,33.874,46.002,35.052,46.002,36.491z"/>
	<path fill="#F05C22" d="M48.954,46.892V27.227h-1.317v-3.406c0,0,5.086,0,5.859,0c2.543,0,4.541,1.998,4.541,4.541v17.395
		c0,2.543-1.998,4.541-4.541,4.541c-0.363,0-5.859,0-5.859,0v-3.406H48.954z M53.496,27.227c-0.636,0-1.135,0-1.135,0v19.665
		c0,0,0.5,0,1.135,0s1.135-0.499,1.135-1.135c0,0,0-17.304,0-17.395C54.631,27.727,54.131,27.227,53.496,27.227z"/>
	<path fill="#F05C22" d="M65.212,23.412c2.544,0,4.542,2.043,4.542,4.542v18.166c0,2.545-1.998,4.543-4.542,4.543
		c-2.498,0-4.541-1.998-4.541-4.543V27.954C60.671,25.455,62.715,23.412,65.212,23.412z M64.078,46.119
		c0,0.637,0.5,1.137,1.135,1.137c0.637,0,1.136-0.5,1.136-1.137V27.954c0-0.636-0.5-1.136-1.136-1.136
		c-0.635,0-1.135,0.5-1.135,1.136V46.119z"/>
	<path fill="#F05C22" d="M79.383,27.227v19.665h1.363v3.406H74.66v-3.406h1.317V27.227h-1.499v3.588h-3.406v-6.994h13.262v6.994
		h-3.406v-3.588H79.383z"/>
	<path fill="#F05C22" d="M88.957,36.491c0,1.415-1.204,2.618-2.617,2.618c-1.414,0-2.618-1.203-2.618-2.618
		c0-1.438,1.204-2.617,2.618-2.617C87.753,33.874,88.957,35.052,88.957,36.491z"/>
	<path fill="#F05C22" d="M97.586,40.352l-2.271-3.815v13.761h-4.723v-3.406h1.316V27.227h-1.316v-3.406h4.723v6.177l2.271,3.77
		v-9.946h4.723v3.406h-1.316v23.071h-3.406V40.352z"/>
	<path fill="#F05C22" d="M105.533,27.227h-1.317v-3.406h9.856v5.677h-3.407v-2.271h-1.725v7.176h3.406v3.406h-3.406v9.083h1.725
		v-2.271h3.407v5.677h-9.856v-3.406h1.317V27.227z"/>
	<path fill="#F05C22" d="M124.018,27.227v19.665h1.362v3.406h-6.085v-3.406h1.316V27.227h-1.498v3.588h-3.406v-6.994h13.261v6.994
		h-3.406v-3.588H124.018z"/>
</g>
<g>
	<g>
		<path fill="#FFFFFF" d="M39.423,58.862v-1.001c0,0-0.415,0-0.83,0c-0.391,0-0.806,0.391-0.806,0.806v5.906
			c0,0.391,0.415,0.806,0.806,0.806c0.415,0,0.83-0.415,0.83-0.806v-0.513h1.415v0.513c0,1.221-1.025,2.222-2.245,2.222
			c-1.221,0-2.221-1.001-2.221-2.222v-5.906c0-1.221,1-2.246,2.221-2.246c0.415,0,2.245,0,2.245,0v2.441H39.423z"/>
		<path fill="#FFFFFF" d="M44.279,56.226c1.22,0,2.245,1.026,2.245,2.245v6.103c0,1.221-1.025,2.222-2.245,2.222
			c-1.221,0-2.221-1.001-2.221-2.222v-6.103C42.059,57.252,43.059,56.226,44.279,56.226z M43.474,64.573
			c0,0.391,0.416,0.806,0.806,0.806c0.415,0,0.83-0.415,0.83-0.806v-6.103c0-0.414-0.415-0.829-0.83-0.829
			c-0.39,0-0.806,0.415-0.806,0.829V64.573z"/>
		<path fill="#FFFFFF" d="M48.94,56.86c0.464-0.391,1-0.635,1.611-0.635c1.22,0,2.22,1.026,2.22,2.245v8.128h-1.415v-8.128
			c0-0.414-0.415-0.829-0.805-0.829c-0.415,0-0.83,0.415-0.83,0.829v8.128h-1.415v-8.347l-0.904-0.903l1.001-1.024L48.94,56.86z"/>
		<path fill="#FFFFFF" d="M56.457,56.421h1.001v1.44h-1.001v8.737h-1.44v-8.737h-1v-1.44h1v-1.83c0-1.22,1.026-2.221,2.245-2.221
			c0.196,0,1.026,0,1.026,0v1.415c0,0-0.83,0-1.026,0c-0.414,0-0.805,0.415-0.805,0.806V56.421z"/>
		<path fill="#FFFFFF" d="M60.313,62.743v1.83c0,0.391,0.415,0.806,0.805,0.806c0.415,0,0.829-0.415,0.829-0.806v-0.513h1.416v0.513
			c0,1.221-1.024,2.222-2.245,2.222c-1.22,0-2.221-1.001-2.221-2.222v-6.103c0-1.219,1.001-2.245,2.221-2.245
			c1.221,0,2.245,1.026,2.245,2.245v4.272H60.313z M61.947,61.303v-2.832c0-0.414-0.414-0.829-0.829-0.829
			c-0.39,0-0.805,0.415-0.805,0.829v2.832H61.947z"/>
		<path fill="#FFFFFF" d="M66.072,57.129c0.464-0.463,1.099-0.708,1.708-0.708h0.611v1.44H67.78c-0.366,0-1.098,0.609-1.098,1.099
			v7.639h-1.44c0,0,0-8.078,0-8.249l-1.001-1.001l1.001-1.024L66.072,57.129z"/>
		<path fill="#FFFFFF" d="M70.903,62.743v1.83c0,0.391,0.415,0.806,0.806,0.806c0.415,0,0.83-0.415,0.83-0.806v-0.513h1.415v0.513
			c0,1.221-1.024,2.222-2.245,2.222s-2.221-1.001-2.221-2.222v-6.103c0-1.219,1-2.245,2.221-2.245s2.245,1.026,2.245,2.245v4.272
			H70.903z M72.539,61.303v-2.832c0-0.414-0.415-0.829-0.83-0.829c-0.391,0-0.806,0.415-0.806,0.829v2.832H72.539z"/>
		<path fill="#FFFFFF" d="M76.37,56.86c0.464-0.391,1-0.635,1.611-0.635c1.22,0,2.22,1.026,2.22,2.245v8.128h-1.415v-8.128
			c0-0.414-0.415-0.829-0.805-0.829c-0.415,0-0.831,0.415-0.831,0.829v8.128h-1.415v-8.347l-0.903-0.903l1.001-1.024L76.37,56.86z"
			/>
		<path fill="#FFFFFF" d="M84.839,58.862v-1.001c0,0-0.415,0-0.83,0c-0.391,0-0.806,0.391-0.806,0.806v5.906
			c0,0.391,0.415,0.806,0.806,0.806c0.415,0,0.83-0.415,0.83-0.806v-0.513h1.415v0.513c0,1.221-1.024,2.222-2.245,2.222
			s-2.221-1.001-2.221-2.222v-5.906c0-1.221,1-2.246,2.221-2.246c0.415,0,2.245,0,2.245,0v2.441H84.839z"/>
		<path fill="#FFFFFF" d="M88.89,62.743v1.83c0,0.391,0.415,0.806,0.806,0.806c0.415,0,0.83-0.415,0.83-0.806v-0.513h1.415v0.513
			c0,1.221-1.025,2.222-2.245,2.222c-1.221,0-2.221-1.001-2.221-2.222v-6.103c0-1.219,1-2.245,2.221-2.245
			c1.22,0,2.245,1.026,2.245,2.245v4.272H88.89z M90.525,61.303v-2.832c0-0.414-0.415-0.829-0.83-0.829
			c-0.391,0-0.806,0.415-0.806,0.829v2.832H90.525z"/>
	</g>
</g>
</svg>
