<?xml version="1.0" encoding="utf-8"?>
<!-- Generator: Adobe Illustrator 16.0.0, SVG Export Plug-In . SVG Version: 6.00 Build 0)  -->
<!DOCTYPE svg PUBLIC "-//W3C//DTD SVG 1.1//EN" "http://www.w3.org/Graphics/SVG/1.1/DTD/svg11.dtd">
<svg version="1.1" id="Layer_1" xmlns="http://www.w3.org/2000/svg" xmlns:xlink="http://www.w3.org/1999/xlink" x="0px" y="0px"
	 width="216px" height="216px" viewBox="0 0 216 216" enable-background="new 0 0 216 216" xml:space="preserve">
<g>
	<path fill="#FFFFFF" d="M174.039,67.227h-1.807v-8.552h-1.025v-1.507l-3.795-3.432l-3.855,3.495h-2.228v1.205h-0.421v12.77h-2.532
		v-8.732h-3.913v-1.327h-6.146v1.206h-4.154v1.026h-2.651v-1.085h-3.854v0.84h-3.313c0,0,0.482-0.78-1.262-0.78
		c-1.745,0-1.389,1.742-1.389,1.742h-1.624v3.317l-2.775,1.019v1.026h-3.125l-0.484-3.315h-0.722v-3.009h-0.848v-1.747h-2.828
		V36.872h-2.826v-1.809h-6.99v1.745h-3.133v26.14h-1.733c0,0-0.356-5.419-0.66-5.419c-0.301,0-0.666,5.483-0.666,5.483l-1.378,0.242
		v4.939h-3.576v-5.181h-1.088v-5.363l-0.958,0.847l-1.326-3.98h-0.844l-1.027,3.856l-0.78-0.781v5.421h-3.611v-1.626l-1.209-1.083
		h-1.684v-5.786h-1.202l-1.569-1.624h-6.083v11.086h-2.832v1.562h-3.073v-9.758l-0.421-0.903h-0.961l-0.844-3.073h-1.75
		l-0.781-1.323c0,0,0.121-2.413-0.723-2.413c-0.84,0-0.484,2.413-0.484,2.413l-0.718,1.389h-1.749L61.581,55h-0.842l-0.121,1.022
		V71.75h-2.83v-1.146H56.16v1.444h-1.626V62.047h-4.698l-0.962-1.384h-4.459l-0.844,1.384h-2.895v8.856l-0.029,6.5h133.548
		L174.039,67.227z"/>
	<g>
		<path fill="#FFFFFF" d="M38.13,95.252l2.504,6.261l2.505-6.261v-2.994h5.662v4.083h-1.579v23.574h1.579v4.083h-5.662V106.25
			l-2.505,6.152l-2.504-6.152v17.749h-5.662v-4.083h1.579V96.341h-1.579v-4.083h5.662V95.252z"/>
		<path fill="#FFFFFF" d="M56.747,110.932v13.066h-5.662v-4.083h1.579V96.341h-1.579v-4.083h5.662v10.779l2.723-4.519v-6.261h5.662
			v4.083h-1.579v3.212l-4.464,7.404l4.464,7.459v5.499h1.797v4.083h-5.88v-8.548L56.747,110.932z"/>
		<path fill="#FFFFFF" d="M68.777,96.341h-1.579v-4.083h11.814v6.805H74.93v-2.722H72.86v8.602h4.083v4.083H72.86v10.889h2.069
			v-2.723h4.083v6.806H67.198v-4.083h1.579V96.341z"/>
		<path fill="#FFFFFF" d="M86.512,107.45c0,1.694-1.443,3.137-3.138,3.137c-1.694,0-3.137-1.443-3.137-3.137
			c0-1.726,1.443-3.137,3.137-3.137C85.068,104.312,86.512,105.724,86.512,107.45z"/>
		<path fill="#FFFFFF" d="M90.05,119.915V96.341h-1.579v-4.083c0,0,6.098,0,7.023,0c3.049,0,5.444,2.396,5.444,5.444v20.852
			c0,3.049-2.396,5.444-5.444,5.444c-0.436,0-7.023,0-7.023,0v-4.083H90.05z M95.495,96.341c-0.762,0-1.361,0-1.361,0v23.574
			c0,0,0.599,0,1.361,0s1.361-0.599,1.361-1.361c0,0,0-20.743,0-20.852C96.855,96.939,96.257,96.341,95.495,96.341z"/>
		<path fill="#FFFFFF" d="M109.539,91.768c3.049,0,5.444,2.45,5.444,5.444v21.777c0,3.049-2.396,5.444-5.444,5.444
			c-2.994,0-5.444-2.396-5.444-5.444V97.212C104.095,94.218,106.545,91.768,109.539,91.768z M108.178,118.989
			c0,0.763,0.599,1.361,1.361,1.361c0.763,0,1.361-0.599,1.361-1.361V97.212c0-0.762-0.599-1.361-1.361-1.361
			c-0.762,0-1.361,0.599-1.361,1.361V118.989z"/>
		<path fill="#FFFFFF" d="M126.524,96.341v23.574h1.634v4.083h-7.296v-4.083h1.579V96.341h-1.797v4.301h-4.083v-8.384h15.897v8.384
			h-4.083v-4.301H126.524z"/>
		<path fill="#FFFFFF" d="M137.997,107.45c0,1.694-1.443,3.137-3.138,3.137c-1.693,0-3.137-1.443-3.137-3.137
			c0-1.726,1.443-3.137,3.137-3.137C136.554,104.312,137.997,105.724,137.997,107.45z"/>
		<path fill="#FFFFFF" d="M148.341,112.075l-2.722-4.573v16.496h-5.662v-4.083h1.578V96.341h-1.578v-4.083h5.662v7.404l2.722,4.519
			V92.258h5.662v4.083h-1.579v27.657h-4.083V112.075z"/>
		<path fill="#FFFFFF" d="M157.867,96.341h-1.579v-4.083h11.813v6.805h-4.083v-2.722h-2.068v8.602h4.083v4.083h-4.083v10.889h2.068
			v-2.723h4.083v6.806h-11.813v-4.083h1.579V96.341z"/>
		<path fill="#FFFFFF" d="M180.023,96.341v23.574h1.634v4.083h-7.296v-4.083h1.579V96.341h-1.797v4.301h-4.083v-8.384h15.897v8.384
			h-4.083v-4.301H180.023z"/>
	</g>
	<g>
		<g>
			<path fill="#FFFFFF" d="M78.627,134.265v-1.199c0,0-0.497,0-0.994,0c-0.468,0-0.965,0.468-0.965,0.965v7.079
				c0,0.468,0.497,0.965,0.965,0.965c0.497,0,0.994-0.497,0.994-0.965v-0.614h1.697v0.614c0,1.463-1.229,2.662-2.691,2.662
				c-1.463,0-2.662-1.199-2.662-2.662v-7.079c0-1.462,1.199-2.69,2.662-2.69c0.497,0,2.691,0,2.691,0v2.925H78.627z"/>
			<path fill="#FFFFFF" d="M84.448,131.105c1.462,0,2.691,1.229,2.691,2.691v7.312c0,1.463-1.229,2.662-2.691,2.662
				c-1.463,0-2.662-1.199-2.662-2.662v-7.312C81.786,132.334,82.985,131.105,84.448,131.105z M83.483,141.109
				c0,0.468,0.497,0.965,0.965,0.965c0.497,0,0.994-0.497,0.994-0.965v-7.312c0-0.498-0.497-0.995-0.994-0.995
				c-0.468,0-0.965,0.497-0.965,0.995V141.109z"/>
			<path fill="#FFFFFF" d="M90.035,131.866c0.556-0.469,1.199-0.761,1.93-0.761c1.463,0,2.662,1.229,2.662,2.691v9.74h-1.697v-9.74
				c0-0.498-0.497-0.995-0.965-0.995c-0.497,0-0.994,0.497-0.994,0.995v9.74h-1.697v-10.004l-1.083-1.082l1.2-1.229L90.035,131.866z
				"/>
			<path fill="#FFFFFF" d="M99.044,131.34h1.199v1.726h-1.199v10.472h-1.726v-10.472h-1.2v-1.726h1.2v-2.194
				c0-1.463,1.229-2.662,2.691-2.662c0.234,0,1.229,0,1.229,0v1.697c0,0-0.995,0-1.229,0c-0.497,0-0.965,0.497-0.965,0.965V131.34z"
				/>
			<path fill="#FFFFFF" d="M103.666,138.915v2.194c0,0.468,0.497,0.965,0.965,0.965c0.497,0,0.994-0.497,0.994-0.965v-0.614h1.697
				v0.614c0,1.463-1.229,2.662-2.691,2.662c-1.463,0-2.662-1.199-2.662-2.662v-7.312c0-1.463,1.199-2.691,2.662-2.691
				c1.462,0,2.691,1.229,2.691,2.691v5.118H103.666z M105.625,137.189v-3.393c0-0.498-0.497-0.995-0.994-0.995
				c-0.468,0-0.965,0.497-0.965,0.995v3.393H105.625z"/>
			<path fill="#FFFFFF" d="M110.569,132.188c0.556-0.556,1.316-0.848,2.047-0.848h0.731v1.726h-0.731
				c-0.438,0-1.315,0.731-1.315,1.316v9.155h-1.727c0,0,0-9.682,0-9.887l-1.199-1.199l1.199-1.229L110.569,132.188z"/>
			<path fill="#FFFFFF" d="M116.36,138.915v2.194c0,0.468,0.497,0.965,0.965,0.965c0.497,0,0.995-0.497,0.995-0.965v-0.614h1.696
				v0.614c0,1.463-1.229,2.662-2.691,2.662c-1.462,0-2.661-1.199-2.661-2.662v-7.312c0-1.463,1.199-2.691,2.661-2.691
				c1.463,0,2.691,1.229,2.691,2.691v5.118H116.36z M118.32,137.189v-3.393c0-0.498-0.498-0.995-0.995-0.995
				c-0.468,0-0.965,0.497-0.965,0.995v3.393H118.32z"/>
			<path fill="#FFFFFF" d="M122.913,131.866c0.556-0.469,1.199-0.761,1.931-0.761c1.462,0,2.661,1.229,2.661,2.691v9.74h-1.696
				v-9.74c0-0.498-0.497-0.995-0.965-0.995c-0.498,0-0.995,0.497-0.995,0.995v9.74h-1.696v-10.004l-1.082-1.082l1.199-1.229
				L122.913,131.866z"/>
			<path fill="#FFFFFF" d="M133.063,134.265v-1.199c0,0-0.498,0-0.995,0c-0.468,0-0.965,0.468-0.965,0.965v7.079
				c0,0.468,0.497,0.965,0.965,0.965c0.497,0,0.995-0.497,0.995-0.965v-0.614h1.696v0.614c0,1.463-1.229,2.662-2.691,2.662
				c-1.462,0-2.661-1.199-2.661-2.662v-7.079c0-1.462,1.199-2.69,2.661-2.69c0.497,0,2.691,0,2.691,0v2.925H133.063z"/>
			<path fill="#FFFFFF" d="M137.918,138.915v2.194c0,0.468,0.497,0.965,0.965,0.965c0.497,0,0.995-0.497,0.995-0.965v-0.614h1.696
				v0.614c0,1.463-1.229,2.662-2.691,2.662c-1.462,0-2.661-1.199-2.661-2.662v-7.312c0-1.463,1.199-2.691,2.661-2.691
				c1.463,0,2.691,1.229,2.691,2.691v5.118H137.918z M139.878,137.189v-3.393c0-0.498-0.498-0.995-0.995-0.995
				c-0.468,0-0.965,0.497-0.965,0.995v3.393H139.878z"/>
		</g>
	</g>
	<rect x="40.646" y="82.006" fill="#FFFFFF" width="133.548" height="4.145"/>
	<g>
		<g>
			<path fill="#FFFFFF" d="M104.937,164.678c-0.205,0.43-0.642,0.562-0.981,0.304l0,0c-0.335-0.261-0.445-0.819-0.236-1.245
				l5.507-11.578c0.204-0.429,0.639-0.561,0.978-0.306l0,0c0.34,0.264,0.444,0.824,0.239,1.25L104.937,164.678z"/>
			<g>
				<path fill="#FFFFFF" d="M94.898,158.72c-0.33,0.282-0.772,0.171-0.991-0.244l0,0c-0.22-0.416-0.136-0.979,0.191-1.262
					l5.917-5.04c0.329-0.279,0.771-0.172,0.99,0.245l0,0c0.217,0.415,0.135,0.978-0.192,1.261L94.898,158.72z"/>
				<path fill="#FFFFFF" d="M94.103,158.865c-0.329-0.278-0.419-0.841-0.2-1.26l0,0c0.215-0.416,0.659-0.532,0.988-0.257l5.929,5.02
					c0.332,0.275,0.423,0.833,0.203,1.256l0,0c-0.218,0.42-0.662,0.533-0.987,0.255L94.103,158.865z"/>
			</g>
			<g>
				<path fill="#FFFFFF" d="M119.179,158.72c0.323,0.282,0.765,0.171,0.989-0.244l0,0c0.218-0.416,0.132-0.979-0.192-1.262
					l-5.919-5.04c-0.325-0.279-0.771-0.172-0.991,0.245l0,0c-0.22,0.415-0.132,0.978,0.196,1.261L119.179,158.72z"/>
				<path fill="#FFFFFF" d="M119.968,158.865c0.327-0.278,0.422-0.841,0.202-1.26l0,0c-0.214-0.416-0.659-0.532-0.986-0.257
					l-5.936,5.02c-0.325,0.275-0.418,0.833-0.2,1.256l0,0c0.218,0.42,0.661,0.533,0.989,0.255L119.968,158.865z"/>
			</g>
		</g>
		<g>
			<path fill="#FFFFFF" d="M87.448,160.816c-0.009,0-0.018,0-0.024,0l-35.288-2.409c-0.184-0.012-0.327-0.165-0.327-0.352
				c0-0.183,0.144-0.337,0.327-0.351l35.288-2.409c0.143,0.006,0.283,0.074,0.344,0.206c0.06,0.135,0.031,0.292-0.072,0.396
				l-2.144,2.158l2.088,2.103c0.103,0.062,0.176,0.176,0.176,0.308c0,0.195-0.18,0.346-0.36,0.351
				C87.453,160.816,87.45,160.816,87.448,160.816z"/>
		</g>
		<g>
			<path fill="#FFFFFF" d="M126.83,160.816c-0.141,0-0.265-0.078-0.324-0.206c-0.06-0.133-0.031-0.29,0.073-0.395l2.144-2.16
				l-2.144-2.158c-0.104-0.104-0.133-0.261-0.073-0.396c0.063-0.132,0.203-0.2,0.349-0.206l35.285,2.409
				c0.188,0.014,0.328,0.168,0.328,0.351c0,0.187-0.141,0.34-0.328,0.352l-35.285,2.409
				C126.848,160.816,126.835,160.816,126.83,160.816z"/>
		</g>
	</g>
	<g>
		<g>
			<path fill="#FFFFFF" d="M96.812,172.837c2.939,0,4.516,2.139,4.516,4.839c0,0.299-0.06,0.979-0.06,0.979h-7.035
				c0.161,1.782,1.537,2.698,3.058,2.698c1.641,0,2.938-1.119,2.938-1.119l0.98,1.821c0,0-1.558,1.458-4.099,1.458
				c-3.377,0-5.479-2.438-5.479-5.34C91.632,175.034,93.774,172.837,96.812,172.837 M98.77,176.914
				c-0.039-1.378-0.896-2.117-2.016-2.117c-1.298,0-2.203,0.799-2.44,2.117H98.77z"/>
			<path fill="#FFFFFF" d="M103.474,173.076h2.439v1.179c0,0.378-0.038,0.696-0.038,0.696h0.038
				c0.442-0.854,1.562-2.114,3.619-2.114c2.259,0,3.54,1.179,3.54,3.879v6.558h-2.521v-6.037c0-1.239-0.32-2.081-1.618-2.081
				c-1.361,0-2.362,0.855-2.74,2.081c-0.14,0.417-0.18,0.877-0.18,1.357v4.68h-2.541V173.076z"/>
			<path fill="#FFFFFF" d="M115.941,175.255h-1.317v-2.018h1.379v-2.94h2.478v2.94h2.322v2.018h-2.322v3.96
				c0,1.678,1.322,1.917,2.024,1.917c0.278,0,0.458-0.037,0.458-0.037v2.216c0,0-0.299,0.06-0.782,0.06
				c-1.417,0-4.239-0.418-4.239-3.839V175.255z"/>
			<path fill="#FFFFFF" d="M128.797,176.874h0.344v-0.139c0-1.341-0.842-1.8-1.962-1.8c-1.459,0-2.801,0.98-2.801,0.98l-0.958-1.819
				c0,0,1.576-1.262,4-1.262c2.676,0,4.236,1.479,4.236,4.061v6.378h-2.341v-0.842c0-0.4,0.042-0.718,0.042-0.718h-0.042
				c0.021,0-0.775,1.799-3.096,1.799c-1.819,0-3.459-1.141-3.459-3.18C122.761,177.094,127.138,176.874,128.797,176.874
				 M126.859,181.534c1.34,0,2.299-1.438,2.299-2.679v-0.241h-0.438c-1.3,0-3.399,0.182-3.399,1.601
				C125.32,180.896,125.819,181.534,126.859,181.534"/>
			<path fill="#FFFFFF" d="M133.947,173.076h2.439v1.761c0,0.376-0.042,0.721-0.042,0.721h0.042
				c0.459-1.461,1.679-2.621,3.239-2.621c0.236,0,0.455,0.04,0.455,0.04v2.5c0,0-0.258-0.042-0.596-0.042
				c-1.077,0-2.303,0.62-2.78,2.141c-0.16,0.499-0.22,1.06-0.22,1.659v4.039h-2.538V173.076z"/>
			<path fill="#FFFFFF" d="M146.199,172.837c2.94,0,4.52,2.139,4.52,4.839c0,0.299-0.062,0.979-0.062,0.979h-7.037
				c0.161,1.782,1.539,2.698,3.062,2.698c1.64,0,2.94-1.119,2.94-1.119l0.976,1.821c0,0-1.56,1.458-4.099,1.458
				c-3.377,0-5.479-2.438-5.479-5.34C141.021,175.034,143.161,172.837,146.199,172.837 M148.16,176.914
				c-0.039-1.378-0.898-2.117-2.019-2.117c-1.302,0-2.198,0.799-2.442,2.117H148.16z"/>
			<path fill="#FFFFFF" d="M90.113,173.589v2.587c0,0-2.102-2.141-4.582-0.93c0,0-1.623,0.751-1.623,2.878
				c0,0-0.042,2.846,2.924,3.202c0,0,1.49,0.255,3.281-1.293v2.58c0,0-2.402,1.615-5.395,0.522c0,0-3.399-1.258-3.399-4.908
				c0,0-0.308-3.907,3.567-5.222C84.887,173.006,87.312,172.003,90.113,173.589"/>
			<path fill="#FFFFFF" d="M152.431,172.016c0.591,0,1.062,0.48,1.062,1.081c0,0.611-0.472,1.087-1.067,1.087
				c-0.594,0-1.074-0.476-1.074-1.087c0-0.601,0.48-1.081,1.074-1.081H152.431z M152.426,172.185c-0.479,0-0.866,0.409-0.866,0.912
				c0,0.516,0.388,0.919,0.871,0.919c0.482,0.004,0.865-0.403,0.865-0.913c0-0.509-0.383-0.918-0.865-0.918H152.426z
				 M152.224,173.729h-0.193v-1.211c0.103-0.013,0.198-0.026,0.343-0.026c0.18,0,0.305,0.038,0.374,0.093
				c0.072,0.051,0.109,0.133,0.109,0.248c0,0.158-0.104,0.255-0.235,0.292v0.011c0.107,0.019,0.179,0.117,0.203,0.293
				c0.027,0.188,0.058,0.262,0.076,0.301h-0.2c-0.031-0.039-0.058-0.149-0.082-0.308c-0.028-0.157-0.106-0.213-0.261-0.213h-0.134
				V173.729z M152.224,173.06h0.139c0.16,0,0.294-0.06,0.294-0.209c0-0.106-0.077-0.211-0.294-0.211
				c-0.062,0-0.106,0.007-0.139,0.012V173.06z"/>
		</g>
		<g>
			<path fill="#FFFFFF" d="M76.235,181.429h-7.243v-7.247h6.034v-2.653h-7.564c-0.713,0-1.29,0.578-1.29,1.289v10.141
				c0,0.713,0.577,1.289,1.29,1.289H77.6c0.713,0,1.29-0.576,1.29-1.289v-7.565h-2.654V181.429z"/>
			<rect x="70.316" y="175.51" fill="#FFFFFF" width="4.591" height="4.592"/>
			<polygon fill="#FFFFFF" points="76.117,171.446 76.117,171.528 76.117,174.182 76.117,174.301 76.235,174.301 78.889,174.301 
				78.973,174.301 78.973,171.446 			"/>
			<rect x="79.766" y="168.754" fill="#FFFFFF" width="1.958" height="1.956"/>
		</g>
	</g>
	<path fill="#FFFFFF" d="M108.193,0.579C48.745,0.613,0.583,48.832,0.615,108.278c0.035,59.446,48.253,107.608,107.699,107.572
		c59.445-0.032,107.608-48.248,107.573-107.695C215.854,48.711,167.638,0.544,108.193,0.579z M108.309,208.327
		C53.105,208.358,8.169,163.473,8.14,108.273C8.108,53.07,52.992,8.135,108.196,8.104c55.199-0.03,100.135,44.855,100.166,100.056
		C208.392,163.358,163.508,208.297,108.309,208.327z"/>
	<path fill="#FFFFFF" d="M20.885,108.502l6.485,22.236L3.407,130.76L3.384,86.269l23.959-0.018L20.885,108.502z M19.382,106.918
		c-0.142-0.594-0.377-1.143-0.687-1.651c-0.526,0.201-1.148,0.097-1.572-0.328c-0.428-0.425-0.533-1.043-0.331-1.573
		c-0.507-0.311-1.061-0.545-1.653-0.688c-0.229,0.519-0.744,0.884-1.345,0.884c-0.603,0.002-1.119-0.363-1.346-0.881
		c-0.594,0.14-1.147,0.378-1.653,0.689c0.203,0.527,0.098,1.146-0.328,1.572c-0.424,0.428-1.045,0.531-1.572,0.331
		c-0.31,0.506-0.545,1.06-0.687,1.653c0.519,0.229,0.882,0.742,0.882,1.345c0,0.602-0.363,1.116-0.88,1.347
		c0.143,0.592,0.377,1.146,0.688,1.65c0.527-0.202,1.15-0.095,1.572,0.329c0.425,0.425,0.531,1.043,0.332,1.572
		c0.503,0.31,1.057,0.545,1.653,0.688c0.225-0.521,0.741-0.885,1.342-0.886c0.601,0,1.118,0.364,1.35,0.885
		c0.589-0.143,1.145-0.379,1.649-0.691c-0.205-0.525-0.096-1.145,0.329-1.573c0.425-0.422,1.042-0.53,1.571-0.326
		c0.311-0.509,0.545-1.061,0.688-1.656c-0.519-0.229-0.882-0.743-0.882-1.344C18.503,107.663,18.865,107.148,19.382,106.918z"/>
	<path fill="#FFFFFF" d="M16.094,108.28c0,1.281-1.038,2.323-2.32,2.323c-1.283,0-2.322-1.036-2.326-2.32
		c0-1.288,1.04-2.325,2.324-2.325C15.053,105.956,16.094,106.994,16.094,108.28z"/>
	<g>
		<path fill="#FFFFFF" d="M189.256,86.168l23.96-0.018l0.024,44.488l-23.96,0.016l6.461-22.245L189.256,86.168z M198.123,108.162
			c0.002,0.605-0.365,1.118-0.883,1.348c0.144,0.594,0.379,1.15,0.69,1.653c0.528-0.202,1.146-0.097,1.57,0.328
			c0.424,0.426,0.533,1.043,0.33,1.568c0.507,0.314,1.059,0.545,1.653,0.69c0.229-0.517,0.745-0.884,1.345-0.882
			c0.603-0.002,1.118,0.363,1.348,0.882c0.596-0.146,1.146-0.381,1.652-0.692c-0.204-0.525-0.097-1.146,0.327-1.569
			c0.424-0.427,1.044-0.531,1.571-0.332c0.313-0.504,0.545-1.058,0.688-1.649c-0.519-0.231-0.883-0.745-0.883-1.348
			c0-0.602,0.364-1.118,0.881-1.347c-0.143-0.593-0.378-1.147-0.688-1.651c-0.527,0.203-1.147,0.097-1.573-0.325
			c-0.427-0.428-0.531-1.048-0.334-1.576c-0.501-0.312-1.053-0.545-1.648-0.687c-0.229,0.519-0.745,0.883-1.346,0.883
			c-0.602,0-1.117-0.364-1.344-0.881c-0.596,0.145-1.149,0.378-1.654,0.688c0.202,0.528,0.098,1.147-0.328,1.574
			c-0.424,0.425-1.046,0.532-1.571,0.331c-0.31,0.506-0.545,1.057-0.687,1.651C197.758,107.048,198.123,107.564,198.123,108.162z"/>
		<path fill="#FFFFFF" d="M200.531,108.177c0,1.282,1.042,2.318,2.32,2.318c1.286,0,2.324-1.039,2.324-2.323
			c0-1.283-1.041-2.318-2.327-2.317C201.57,105.854,200.531,106.893,200.531,108.177z"/>
	</g>
	<g>
		<path fill="#FFFFFF" d="M108.198,14.417c44.383-0.022,81.555,30.792,91.32,72.197l3.561-0.002
			c-9.862-43.293-48.653-75.698-94.883-75.672c-46.203,0.023-84.941,32.437-94.783,75.702l3.564-0.004
			C26.723,45.262,63.843,14.445,108.198,14.417z"/>
		<path fill="#FFFFFF" d="M199.586,129.516c-9.644,41.516-46.826,72.47-91.282,72.497c-44.37,0.023-81.539-30.776-91.312-72.165
			l-3.562,0.002c9.87,43.275,48.655,75.668,94.875,75.641c46.303-0.024,85.106-32.573,94.843-75.979L199.586,129.516z"/>
	</g>
</g>
</svg>
