<?xml version="1.0" encoding="UTF-8" standalone="no"?>
<svg
   xmlns:dc="http://purl.org/dc/elements/1.1/"
   xmlns:cc="http://creativecommons.org/ns#"
   xmlns:rdf="http://www.w3.org/1999/02/22-rdf-syntax-ns#"
   xmlns:svg="http://www.w3.org/2000/svg"
   xmlns="http://www.w3.org/2000/svg"
   viewBox="0 0 156.82668 49.68"
   height="49.68"
   width="156.82668"
   xml:space="preserve"
   id="svg2"
   version="1.1"><metadata
     id="metadata8"><rdf:RDF><cc:Work
         rdf:about=""><dc:format>image/svg+xml</dc:format><dc:type
           rdf:resource="http://purl.org/dc/dcmitype/StillImage" /></cc:Work></rdf:RDF></metadata><defs
     id="defs6" /><g
     transform="matrix(1.3333333,0,0,-1.3333333,0,49.68)"
     id="g10"><g
       transform="scale(0.1)"
       id="g12"><path
         id="path14"
         style="fill:#203466;fill-opacity:1;fill-rule:nonzero;stroke:none"
         d="m 233.926,121.824 c -0.227,10.235 -5.906,13.637 -14.317,13.637 -10.461,0 -15,-4.543 -15,-9.555 0,-5.898 3.868,-8.398 10.684,-10.437 12.5,-3.645 35.449,-8.196 52.051,-15.227 20.683,-8.6522 29.765,-23.4178 29.765,-43.1834 C 297.109,16.8242 264.395,0 218.02,0 178.477,0 142.109,12.2734 142.109,55 h 62.266 c 0,-4.5312 0.918,-9.0742 3.418,-12.4922 2.488,-3.1836 6.582,-5.2344 12.734,-5.2344 9.532,0 15.664,6.1524 15.664,13.4102 0,6.1406 -4.765,9.3242 -10.898,11.1406 l -46.145,13.6367 c -25.222,7.5157 -34.089,22.7227 -34.089,43.8551 0,34.11 27.5,53.426 75.468,53.426 40.899,0 71.582,-12.734 71.582,-50.918 h -58.183" /><path
         id="path16"
         style="fill:#203466;fill-opacity:1;fill-rule:nonzero;stroke:none"
         d="M 458.926,59.3242 C 458.926,19.7734 430.508,0 380.957,0 331.418,0 303.008,19.7734 303.008,59.3242 V 168.426 h 65 V 62.043 c 0,-12.9532 6.133,-17.9532 12.949,-17.9532 6.824,0 12.969,5 12.969,17.9532 v 106.383 h 65 V 59.3242" /><path
         id="path18"
         style="fill:#203466;fill-opacity:1;fill-rule:nonzero;stroke:none"
         d="m 535.496,96.8242 c 16.828,0 23.188,6.1368 23.188,17.7348 0,11.593 -5.461,16.582 -19.543,16.582 h -6.828 V 96.8242 Z m -68.172,71.6018 h 95.457 c 39.555,0 58.188,-22.965 58.188,-53.867 0,-32.7348 -21.367,-55.0082 -67.278,-55.0082 H 532.313 V 4.32422 H 467.324 V 168.426" /><path
         id="path20"
         style="fill:#203466;fill-opacity:1;fill-rule:nonzero;stroke:none"
         d="m 694.578,96.8242 c 16.84,0 23.203,6.1368 23.203,17.7348 0,11.593 -5.468,16.582 -19.566,16.582 h -6.82 V 96.8242 Z m -68.16,71.6018 h 95.445 c 39.555,0 58.188,-22.965 58.188,-53.867 0,-32.7348 -21.367,-55.0082 -67.285,-55.0082 H 691.395 V 4.32422 H 626.418 V 168.426" /><path
         id="path22"
         style="fill:#203466;fill-opacity:1;fill-rule:nonzero;stroke:none"
         d="m 785.48,168.426 h 65.016 V 59.8125 h 53.559 V 4.32422 H 785.48 V 168.426" /><path
         id="path24"
         style="fill:#203466;fill-opacity:1;fill-rule:nonzero;stroke:none"
         d="M 926.379,61.1328 871.16,168.426 h 67.285 l 16.723,-39.434 16.387,39.434 h 71.655 L 991.379,61.1328 V 4.32422 h -65 V 61.1328" /><path
         id="path26"
         style="fill:#203466;fill-opacity:1;fill-rule:nonzero;stroke:none"
         d="m 1018.78,25.2148 c 2.42,0 4.04,0.9258 4.04,2.9375 0,1.7579 -1.42,2.8907 -3.49,2.8907 h -5.06 v -5.8282 z m -7.64,8.4844 h 8.6 c 4.8,0 6.42,-2.9883 6.42,-5.0976 0,-3.1407 -2.26,-5.4102 -5.54,-5.6055 v -0.0977 c 1.66,-0.5859 2.87,-2.2656 4.51,-4.8632 l 2.36,-3.7696 h -3.85 l -1.72,3.0274 c -2.44,4.375 -3.38,5.2148 -5.78,5.2148 h -1.87 v -8.2422 h -3.13 z m 7.89,5.6446 c -8.34,0 -15.06,-6.7383 -15.06,-15.0782 0,-8.3398 6.72,-15.11716 15.06,-15.11716 8.34,0 15.12,6.77736 15.12,15.11716 0,8.3399 -6.78,15.0782 -15.12,15.0782 z m 0,-33.17192 c -10,0 -18.06,8.09372 -18.06,18.09372 0,10.0196 8.06,18.0703 18.06,18.0703 10.02,0 18.11,-8.0507 18.11,-18.0703 0,-10 -8.09,-18.09372 -18.11,-18.09372" /><path
         id="path28"
         style="fill:#203466;fill-opacity:1;fill-rule:nonzero;stroke:none"
         d="m 355.957,362.684 c -9.785,3.3 -22.18,5.105 -37.637,5.105 h -85.215 l -2.226,-5.105 h 125.078" /><path
         id="path30"
         style="fill:#203466;fill-opacity:1;fill-rule:nonzero;stroke:none"
         d="m 492.754,362.684 2.226,5.105 h -71.875 l -2.246,-5.105 h 71.895" /><path
         id="path32"
         style="fill:#203466;fill-opacity:1;fill-rule:nonzero;stroke:none"
         d="m 1173.96,362.684 2.23,5.105 h -161.34 l -2.22,-5.105 h 161.33" /><path
         id="path34"
         style="fill:#203466;fill-opacity:1;fill-rule:nonzero;stroke:none"
         d="m 823.918,362.684 2.203,5.105 H 688.137 l -2.246,-5.105 h 138.027" /><path
         id="path36"
         style="fill:#203466;fill-opacity:1;fill-rule:nonzero;stroke:none"
         d="m 648.113,362.684 c -7.968,3.527 -19.121,5.105 -33.086,5.105 H 507.695 l -2.226,-5.105 h 142.644" /><path
         id="path38"
         style="fill:#203466;fill-opacity:1;fill-rule:nonzero;stroke:none"
         d="m 970.281,362.684 c -10.957,6.882 -26.636,9.879 -44.82,9.879 -18.441,0 -35.883,-3.516 -51.914,-9.879 h 96.734" /><path
         id="path40"
         style="fill:#203466;fill-opacity:1;fill-rule:nonzero;stroke:none"
         d="m 1162.11,335.582 10.62,24.289 H 73.0352 l -2.4297,-5.527 H 227.227 l -8.223,-18.762 H 384.16 c -2.058,7.406 -6.055,13.734 -12.344,18.762 h 45.403 l -8.227,-18.762 h 71.887 l 8.223,18.762 h 12.707 l -8.215,-18.762 h 167.668 c 1.504,7.82 0.586,14.008 -2.563,18.762 h 23.559 l -8.227,-18.762 h 138.125 l 8.149,18.762 h 35.972 c -9.273,-5.246 -17.925,-11.543 -25.855,-18.762 H 986.34 c -0.473,7.508 -2.793,13.734 -6.66,18.762 h 29.29 l -8.22,-18.762 h 161.36" /><path
         id="path42"
         style="fill:#203466;fill-opacity:1;fill-rule:nonzero;stroke:none"
         d="m 215.352,327.246 -8.047,-18.351 h 70.547 l 7.761,17.687 h 7.043 c 11.563,0 16.375,-4.277 17.754,-11.562 0.293,-1.739 0.254,-3.829 0.012,-6.125 h 74.109 c 1.192,6.554 1.602,12.695 1.121,18.351 h 19.68 l -8.027,-18.351 h 71.875 l 8.047,18.351 h 12.707 l -8.039,-18.351 h 70.441 l 7.867,17.687 h 6.535 c 14.082,0 21.992,-2.766 16.223,-16.09 -0.246,-0.574 -0.559,-1.078 -0.852,-1.597 h 67.649 c 2.73,4.043 5.113,8.332 7.144,12.91 0.825,1.89 1.504,3.691 2.114,5.441 h 11.367 l -8.047,-18.351 h 68.98 l 5.2,11.656 h 69.121 l 2.91,6.695 h 13.301 c -5.317,-5.676 -10.2,-11.828 -14.653,-18.351 h 73.735 c 7.09,10.382 14.898,16.425 25.308,16.425 7.461,0 12.602,-2.949 9.16,-16.425 h 66.372 c 2.378,6.714 3.804,12.828 4.39,18.351 h 10.942 l -3.594,-8.215 h 44.742 l -4.45,-10.136 h 71.88 l 4.46,10.136 h 44.72 l 6.02,13.746 H 1105.61 999.52 986.453 827.273 810.945 672.781 660.715 492.355 479.648 407.766 384.883 217.773 61.1133 l -2.4219,-5.531 H 215.352" /><path
         id="path44"
         style="fill:#203466;fill-opacity:1;fill-rule:nonzero;stroke:none"
         d="m 168.586,220.516 -8.039,-18.348 H 306.66 c 9.551,5.027 18.535,11.172 26.817,18.348 h 25.097 l -8.039,-18.348 h 71.887 l 8.039,18.348 h 12.715 l -8.039,-18.348 h 70.41 l 8.066,18.348 h 28.407 c -1.844,-6.153 -3.68,-12.43 -5.223,-18.348 h 70.168 c 1.48,6.375 3.238,12.488 5.039,18.348 h 11.601 l -8.031,-18.348 h 140.278 l 8.027,18.348 h 15.152 c 1.059,-6.953 3.418,-13.106 7.168,-18.348 h 127.364 c 7.992,5.125 15.468,11.238 22.23,18.348 h 59.273 l -8.046,-18.348 h 71.87 l 10.47,23.875 H 1020.19 997.488 940.828 778.391 766.316 626.047 613.699 543.691 516.055 445.598 432.891 360.996 339.629 171.008 14.168 l -2.4297,-5.527 H 168.586" /><path
         id="path46"
         style="fill:#203466;fill-opacity:1;fill-rule:nonzero;stroke:none"
         d="m 156.895,193.836 -3.282,-7.5 h 89.485 c 15.359,0 30.34,2.609 44.461,7.5 h 59.316 l -3.281,-7.5 h 71.894 l 3.282,7.5 h 12.714 l -3.281,-7.5 h 70.371 l 3.301,7.5 h 32.922 c -0.578,-2.703 -1.027,-5.242 -1.289,-7.5 h 70.387 c 0.335,2.519 0.761,5.019 1.25,7.5 h 6.781 l -3.281,-7.5 h 140.25 l 3.285,7.5 h 42.129 c 10.332,-7.891 25.757,-12.266 46.992,-12.266 19.16,0 39.019,4.024 57.105,12.266 h 84.961 l -3.277,-7.5 h 71.86 l 5.73,13.027 H 1018.66 985.793 909.148 788.27 754.617 614.348 606.277 536.063 504.316 433.906 421.191 349.309 301.191 159.316 2.44141 L 0,193.836 h 156.895" /><path
         id="path48"
         style="fill:#203466;fill-opacity:1;fill-rule:nonzero;stroke:none"
         d="m 180.273,247.195 -8.039,-18.34 h 70.442 l 8.054,18.34 h 33.274 c -2.246,-3.125 -4.512,-5.859 -6.856,-8.066 -5.429,-4.988 -11.152,-8.524 -17.918,-10.274 h 83.153 c 5.515,5.625 10.644,11.739 15.305,18.34 h 12.585 l -8.046,-18.34 h 71.882 l 8.039,18.34 h 12.715 l -8.039,-18.34 h 70.461 l 8.086,18.34 h 21.738 c 1.27,-2.011 1.289,-4.859 0.176,-8.828 -0.801,-2.929 -1.765,-6.172 -2.754,-9.512 h 70.071 c 2.183,6.739 4.214,12.93 5.703,18.34 h 15 l -8.047,-18.34 h 140.293 l 2.066,4.731 h -71.363 l 5.934,13.609 h 76.132 c -1.367,-6.523 -2.007,-12.644 -1.968,-18.34 h 84.351 c -10.23,0.157 -12.027,7.141 -9.336,18.34 h 33.774 c -7.969,-13.789 -15.649,-18.183 -23.657,-18.34 h 79.59 c 4.399,5.606 8.321,11.7 11.723,18.34 h 51.973 l -8.047,-18.34 h 71.887 l 10.44,23.868 h -37.23 -34.63 -51.702 -67.383 -35.195 -73.316 -75 -68.867 -16.055 -164.387 -12.715 -71.875 -11.23 -73.77 -34.531 -70.469 -156.7887 l -2.4297,-5.528 H 180.273" /><path
         id="path50"
         style="fill:#203466;fill-opacity:1;fill-rule:nonzero;stroke:none"
         d="m 191.973,273.875 -8.047,-18.34 h 70.469 l 8.066,18.34 h 36.152 c -3.125,-6.914 -6.172,-13.047 -9.238,-18.34 h 73.855 c 3.567,5.82 6.829,11.926 9.7,18.34 h 9.035 l -8.039,-18.34 h 71.887 l 8.035,18.34 h 12.707 l -8.039,-18.34 h 163.742 c 1.465,8.438 -0.488,14.582 -6.25,18.34 h 30.996 l -8.051,-18.34 h 132.719 l 8.047,18.34 h 9.058 c -2.617,-6.367 -4.722,-12.48 -6.382,-18.34 h 73.472 c 1.914,5.528 4.477,11.699 7.387,18.34 h 155.216 l -8.05,-18.34 h 71.88 l 10.45,23.879 H 1043.06 1020.89 865.676 791.145 782.141 649.426 605.305 468.984 456.27 384.375 375.352 301.055 264.883 194.395 37.6484 l -2.4336,-5.539 H 191.973" /><path
         id="path52"
         style="fill:#203466;fill-opacity:1;fill-rule:nonzero;stroke:none"
         d="m 548.621,300.563 h 27.336 c -6.516,-6.016 -15.41,-8.415 -25.051,-8.415 h -6.023 z m -344.969,0 -8.027,-18.348 h 70.496 l 8.059,18.348 h 34.609 c -1.406,-5.243 -3.633,-11.375 -6.543,-18.348 h 74.219 c 2.539,6.363 4.648,12.496 6.191,18.348 h 10.996 l -8.047,-18.348 H 457.5 l 8.027,18.348 h 12.715 l -8.039,-18.348 h 144.36 c 12.167,4.355 21.445,10.617 28.589,18.348 h 15.532 l -8.047,-18.348 h 132.73 l 8.071,18.348 h 10.582 c -3.512,-5.868 -6.754,-11.954 -9.586,-18.348 h 74.492 c 3.008,6.777 5.933,12.945 8.902,18.348 h 154.322 l -8.03,-18.348 h 71.86 l 10.47,23.879 h -50.72 -21.16 -51.8 -66.168 -35.532 -73.765 -75.254 -68.946 -13.285 -67.195 -29.539 -70.422 -12.715 -71.875 -12.09 -73.945 -33.43 -70.523 -156.711 l -2.4219,-5.531 H 203.652" /></g></g></svg>